<svg xmlns="http://www.w3.org/2000/svg" width="396.266" height="48.652" viewBox="0 0 396.266 48.652">
  <g>
    <path d="M50.4,48.652H0V0H50.4ZM1.209,47.442H49.192V1.209H1.209Z" fill="#fff"/>
    <path d="M9.757,1.951c7.133-.135,9.69,1.615,9.69,1.615C26.984,7.2,23.754,16.89,23.754,16.89c-2.692,6.325-11.575,6.191-11.575,6.191H7.334V36.674H2.22V1.951ZM7.334,6.661V18.236l4.98.134s7.133.269,7.133-5.652-5.383-6.057-7.268-6.057Z" fill="#fff"/>
    <rect x="22.341" y="20.053" width="4.441" height="26.379" fill="#fff"/>
    <rect x="24.629" y="43.067" width="19.111" height="3.365" fill="#fff"/>
    <g>
      <g>
        <path d="M102.413,19.166C98.924,27.878,88,27.884,80.094,27.806c-.008,3.458-.006,6.138.059,9.42.175,2.1-.215,3.966.78,5.58,1.174,1.616,3.225,2.363,5.7,2.46v.6h-19.2v-.6c1.773-.324,3.909-.745,5.04-2.16.831-1.252.745-3.068.9-4.62.14-4.6.191-9.723.181-14.4v-11.7c-.138-2.328.274-5.3-1.02-7.26-1.339-1.443-3.418-1.5-5.341-1.86v-.6c5.327-.01,11.687-.136,17.041-.12,4.845.1,8.712.031,12.779,2.28A11.71,11.71,0,0,1,102.413,19.166Zm-7.529-10.5a11.322,11.322,0,0,0-4.651-4.08c-2.808-1.278-6.531-1.34-9.479-.9-1.214,7.029-.433,16.214-.66,23.28,5.332.165,11.5-.612,14.519-5.311A12.044,12.044,0,0,0,94.884,8.666Z" fill="#fff"/>
        <path d="M125.573,22.256c-1.691,1.908-3.862.348-5.22-.96-3.05-1.533-5.015,2.846-5.94,5.13v17.28c.849,1.747,3.529,1.189,5.1,1.56v.6h-13.44v-.6c1.389-.194,3.3-.334,3.36-1.92V23.066c-.019-.676-.031-.842-.6-1.26a26.487,26.487,0,0,0-2.7-1.5v-.36l7.86-3.06h.36l-.12,8.34h.12c1.437-3.387,3.96-8.366,8.4-8.34C125.622,16.669,127.512,20.131,125.573,22.256Z" fill="#fff"/>
        <path d="M154.132,36.956c-7.659,17.819-32.963,6.794-26.189-11.131C135.628,8.4,161.279,18.919,154.132,36.956Zm-4.89-10.23c-.621-5.553-6.29-11.617-11.85-7.68-5.916,5.075-6.145,15.459-2.88,22.05,1.875,3.791,7.36,5.6,10.711,2.7C149.6,39.557,150.274,32.5,149.242,26.726Z" fill="#fff"/>
        <path d="M184.522,18.266c-3.986.3-5.043,3.721-6.36,7.14-1.888,4.583-3.978,9.888-5.791,14.46-.958,2.166-1.678,3.79-2.639,5.88a.617.617,0,0,1-1.14-.06c-3.516-8.73-6.454-17.421-10.32-26.16-1.031-.951-1.871-1.27-3.84-1.38v-.66h14.46v.66c-1.407.3-4.379,0-4.621,1.92,1.8,6.213,5.027,13.255,7.321,19.38,2.18-5.67,5.558-13.459,6.96-19.2.034-2.251-2.657-2.066-4.2-2.16v-.6h11.639v.66A11.027,11.027,0,0,0,184.522,18.266Z" fill="#fff"/>
        <path d="M210.351,42.206c-1.865,5.363-11.088,4.937-10.62-1.68l-.12-.06c-2.078,3.47-6.331,6.358-10.59,5.13a5.334,5.334,0,0,1-2.28-8.61c3.491-3.711,8.806-5.944,12.99-8.4-.043-.228.158-6.851-.21-6.75-1.8-3.38-8.279-2.631-9.57.87v2.7c.023,1.219-1.606,2.205-2.76,2.16a2.363,2.363,0,0,1-1.98-3.6c.666-1.2,2.074-1.915,3.18-2.58,4.6-2.37,12.168-7.677,15.9-1.68.914,5.944.017,11.854.241,17.88-.009,2.825.713,4.272,3.059,4.44a2.635,2.635,0,0,0,2.94-2.04h.36A6.233,6.233,0,0,1,210.351,42.206Zm-10.62-12.66c-3.1,2.41-9.2,3.966-9.6,8.58-.068,4.655,6.24,5.191,8.88,2.34a2.179,2.179,0,0,0,.72-1.68Z" fill="#fff"/>
        <path d="M228.351,45.866v-.66c1.552-.261,3.394.065,3.54-1.62V28.466c.388-8.258-6.9-10.276-12-4.44v19.68c.27,1.631,2,1.279,3.24,1.56v.6h-11.58v-.6c1.389-.194,3.3-.334,3.36-1.92V22.706c-.019-.676-.031-.842-.6-1.26a27.764,27.764,0,0,0-2.7-1.38v-.36l7.86-2.82h.36v6.48l.12.06c5.01-8.6,16.942-9.544,16.92,2.7v17.64c.286,1.465,2.5,1.325,3.66,1.56v.54Z" fill="#fff"/>
      </g>
      <g>
        <path d="M321.567,45.866h-38.52v-.6c1.792-.316,4.093-.89,5.28-2.28,1.1-1.782,1.013-4.386,1.14-6.48.052-3.832.155-8.5.12-12.42V12.446c-.1-2.28.331-4.969-.9-6.9-1.2-1.477-3.334-2.038-5.22-2.28v-.6h19.14v.6c-6,.615-6.62,3.805-6.39,9.12-.163,8.26-.092,16.409-.03,24.72.157,1.985-.124,4.693.78,6.24,4.457,2.553,11.117,1.682,16.08.72,5.536-1.287,8.351-5.789,10.14-10.74l.6.18Z" fill="#fff"/>
        <path d="M350.846,42.206c-1.865,5.363-11.088,4.937-10.62-1.68l-.12-.06c-2.078,3.47-6.332,6.358-10.59,5.13a5.334,5.334,0,0,1-2.28-8.61c3.491-3.711,8.806-5.944,12.99-8.4-.043-.229.159-6.85-.21-6.75-1.8-3.38-8.279-2.63-9.57.87v2.7c.023,1.219-1.607,2.205-2.76,2.16a2.363,2.363,0,0,1-1.98-3.6c.666-1.2,2.075-1.915,3.18-2.58,4.6-2.37,12.169-7.677,15.9-1.68.913,5.944.018,11.854.24,17.88-.008,2.825.714,4.272,3.06,4.44a2.635,2.635,0,0,0,2.94-2.04h.36A6.233,6.233,0,0,1,350.846,42.206Zm-10.62-12.66c-3.1,2.41-9.2,3.967-9.6,8.58-.067,4.655,6.239,5.192,8.88,2.34a2.179,2.179,0,0,0,.72-1.68Z" fill="#fff"/>
        <path d="M394.8,18.266c-3.729.376-4.313,4.226-5.82,7.29-1.954,4.516-4.189,9.608-6.03,14.13-1.029,2.183-1.742,3.858-2.76,5.94a.626.626,0,0,1-.93.24c-2.484-6.967-4.427-13.131-6.93-20.34l-5.7,14.88c-1.1,2.052-1.367,3.242-2.28,5.22a.612.612,0,0,1-1.14-.06c-3.82-8.887-6.757-17.345-11.04-26.16a4.849,4.849,0,0,0-3.72-1.26v-.66h13.5v.66c-1.277.177-2.985.283-4.02,1.14,2.056,6.008,5.558,13.859,8.04,19.98,1.927-4.788,3.974-10.244,5.76-15.24a28.458,28.458,0,0,0-1.98-4.5c-.8-1.149-1.912-1.292-3.42-1.38v-.66h13.68v.66c-1.335.289-4.118.086-4.32,1.92,1.532,6.063,4.369,12.937,6.48,18.9,2.214-5.057,4.793-11.252,6.48-16.56,1.288-3.293-.54-4.187-3.36-4.26v-.66h10.98v.66C395.786,18.186,395.3,18.227,394.8,18.266Z" fill="#fff"/>
      </g>
    </g>
    <path d="M12.265,0,49.729.372l.165,41.009-.636,1.454C47.374,20.9,39.7,13.494,39.7,13.494,30.012.978,12.492.682,12.492.682ZM43.052,2.959l-.47.47,4.1,4.11-4.1,4.1.47.47,4.57-4.57Zm-.7.47-.47-.47L37.3,7.539l4.58,4.57.47-.47,4.1-4.1Z" fill="#fff"/>
    <polygon points="272.372 30.879 263.092 40.159 262.182 39.249 270.552 30.879 262.182 22.509 263.092 21.599 272.372 30.879" fill="#fff"/>
    <polygon points="269.848 30.879 261.478 39.249 260.568 40.159 251.288 30.879 260.568 21.599 269.848 30.879" fill="#fff"/>
  </g>
</svg>
